<svg width="197" height="86" viewBox="0 0 197 86" fill="none" xmlns="http://www.w3.org/2000/svg">
<path d="M149.63 69.608V85.9387H134.573V0H149.63V51.0768L176.847 23.9748H194.799L170.13 50.0344L197 85.9387H178.932L159.127 59.9949L149.63 69.608Z" fill="black"/>
<path d="M104.656 33.2365C106.586 29.9163 109.288 27.4069 112.763 25.7082C116.315 24.0095 120.484 23.1602 125.271 23.1602V37.6377C124.422 37.5605 123.302 37.5219 121.913 37.5219C116.739 37.5219 112.686 39.1047 109.752 42.2705C106.817 45.359 105.35 49.9533 105.35 56.0531V85.9348H90.2939V23.9709H104.656V33.2365Z" fill="black"/>
<path d="M28.2601 55.0125L15.8675 85.9365H0.000284024L34.5144 4.8623H49.8025L84.4324 85.9365H68.2177L42.1584 20.9613L28.2601 55.0125Z" fill="black"/>
</svg>
