<svg width="402" height="94" viewBox="0 0 402 94" fill="none" xmlns="http://www.w3.org/2000/svg">
<path d="M154.762 63.5485V74H145.126V19H154.762V51.6887L172.181 34.3437H183.67L167.882 51.0216L185.078 74H173.515L160.84 57.3962L154.762 63.5485Z" fill="white"/>
<path d="M125.978 40.2711C127.214 38.1462 128.943 36.5401 131.167 35.453C133.44 34.3658 136.109 33.8223 139.172 33.8223V43.0878C138.629 43.0383 137.912 43.0136 137.023 43.0136C133.712 43.0136 131.118 44.0267 129.24 46.0527C127.362 48.0294 126.423 50.9696 126.423 54.8735V73.9975H116.787V34.3411H125.978V40.2711Z" fill="white"/>
<path d="M77.0861 54.208L69.1549 73.9991H59L81.0887 22.1123H90.873L113.036 73.9991H102.659L85.9808 32.4155L77.0861 54.208Z" fill="white"/>
<path d="M28.0778 19.5556C33.6778 19.5556 38.6037 20.6963 42.8556 22.9778C47.1593 25.2074 50.5037 28.3963 52.8889 32.5444C55.2741 36.6407 56.4667 41.3852 56.4667 46.7778C56.4667 52.1704 55.2741 56.9407 52.8889 61.0889C50.5037 65.1852 47.1593 68.3741 42.8556 70.6556C38.6037 72.8852 33.6778 74 28.0778 74H5.21111V19.5556H28.0778ZM27.5333 64.9778C31.2148 64.9778 34.4296 64.2259 37.1778 62.7222C39.9778 61.2185 42.1296 59.0926 43.6333 56.3444C45.137 53.5963 45.8889 50.4074 45.8889 46.7778C45.8889 43.0963 45.137 39.8815 43.6333 37.1333C42.1296 34.3852 39.9778 32.2852 37.1778 30.8333C34.4296 29.3296 31.2148 28.5778 27.5333 28.5778H15.5556V64.9778H27.5333Z" fill="white"/>
<path d="M212.767 31.8444C216.448 31.8444 219.767 32.7259 222.722 34.4889C225.73 36.2518 228.089 38.7667 229.8 42.0333C231.511 45.2481 232.367 48.9556 232.367 53.1556C232.367 57.4074 231.511 61.1667 229.8 64.4333C228.089 67.6481 225.73 70.137 222.722 71.9C219.767 73.663 216.448 74.5444 212.767 74.5444C209.915 74.5444 207.374 74 205.144 72.9111C202.915 71.8222 201.074 70.2407 199.622 68.1667V74H189.978V16.2889H200.089V37.9111C203.044 33.8667 207.27 31.8444 212.767 31.8444ZM211.133 65.8333C214.348 65.8333 216.993 64.6926 219.067 62.4111C221.193 60.0778 222.256 56.9926 222.256 53.1556C222.256 49.3185 221.193 46.2593 219.067 43.9778C216.993 41.6963 214.348 40.5556 211.133 40.5556C207.867 40.5556 205.17 41.6963 203.044 43.9778C200.97 46.2593 199.933 49.3185 199.933 53.1556C199.933 56.9926 200.97 60.0778 203.044 62.4111C205.17 64.6926 207.867 65.8333 211.133 65.8333ZM257.124 74.5444C253.028 74.5444 249.347 73.637 246.08 71.8222C242.813 70.0074 240.247 67.4667 238.38 64.2C236.565 60.9333 235.658 57.2519 235.658 53.1556C235.658 49.0593 236.565 45.4037 238.38 42.1889C240.247 38.9222 242.813 36.3815 246.08 34.5667C249.347 32.7518 253.028 31.8444 257.124 31.8444C261.169 31.8444 264.798 32.7518 268.013 34.5667C271.28 36.3815 273.821 38.9222 275.635 42.1889C277.45 45.4037 278.358 49.0593 278.358 53.1556C278.358 57.2519 277.45 60.9333 275.635 64.2C273.821 67.4667 271.28 70.0074 268.013 71.8222C264.798 73.637 261.169 74.5444 257.124 74.5444ZM257.124 65.8333C260.339 65.8333 262.984 64.6926 265.058 62.4111C267.184 60.0778 268.247 56.9926 268.247 53.1556C268.247 49.3185 267.184 46.2593 265.058 43.9778C262.984 41.6963 260.339 40.5556 257.124 40.5556C253.858 40.5556 251.161 41.6963 249.035 43.9778C246.909 46.2593 245.847 49.3185 245.847 53.1556C245.847 56.9926 246.909 60.0778 249.035 62.4111C251.161 64.6926 253.858 65.8333 257.124 65.8333ZM300.4 31.8444C306.311 31.8444 310.822 33.3481 313.933 36.3556C317.096 39.3111 318.678 43.7704 318.678 49.7333V74H309.266V68.3222C308.178 70.3444 306.57 71.9 304.444 72.9889C302.318 74.0259 299.778 74.5444 296.822 74.5444C292.311 74.5444 288.733 73.4037 286.089 71.1222C283.444 68.7889 282.122 65.7815 282.122 62.1C282.122 58.3148 283.47 55.3333 286.166 53.1556C288.863 50.9259 293.037 49.8111 298.689 49.8111H308.644C308.644 48.0481 308.385 46.6222 307.866 45.5333C306.726 42.0074 303.796 40.2444 299.078 40.2444C296.848 40.2444 294.67 40.6333 292.544 41.4111C290.47 42.137 288.681 43.1222 287.178 44.3667L283.522 37.0556C285.648 35.3963 288.189 34.1259 291.144 33.2444C294.152 32.3111 297.237 31.8444 300.4 31.8444ZM299.233 67.3889C301.463 67.3889 303.407 66.8444 305.066 65.7556C306.726 64.6667 307.918 63.0852 308.644 61.0111V56.0333H299.778C294.54 56.0333 291.922 57.9 291.922 61.6333C291.922 63.3963 292.57 64.7963 293.866 65.8333C295.163 66.8704 296.952 67.3889 299.233 67.3889ZM337.684 38.6111C338.98 36.3815 340.795 34.6963 343.128 33.5556C345.513 32.4148 348.313 31.8444 351.528 31.8444V41.5667C350.958 41.5148 350.206 41.4889 349.272 41.4889C345.798 41.4889 343.076 42.5519 341.106 44.6778C339.135 46.7519 338.15 49.837 338.15 53.9333V74H328.039V32.3889H337.684V38.6111ZM396.781 74H387.214V68.1667C385.762 70.2407 383.922 71.8222 381.692 72.9111C379.462 74 376.948 74.5444 374.148 74.5444C370.414 74.5444 367.044 73.663 364.037 71.9C361.029 70.137 358.67 67.6481 356.959 64.4333C355.248 61.1667 354.392 57.4074 354.392 53.1556C354.392 48.9556 355.248 45.2481 356.959 42.0333C358.67 38.7667 361.029 36.2518 364.037 34.4889C367.044 32.7259 370.414 31.8444 374.148 31.8444C376.844 31.8444 379.255 32.363 381.381 33.4C383.559 34.3852 385.348 35.8889 386.748 37.9111V16.2889H396.781V74ZM375.781 65.8333C378.996 65.8333 381.666 64.6926 383.792 62.4111C385.918 60.0778 386.981 56.9926 386.981 53.1556C386.981 49.3704 385.918 46.337 383.792 44.0556C381.666 41.7222 378.996 40.5556 375.781 40.5556C372.514 40.5556 369.818 41.6963 367.692 43.9778C365.566 46.2593 364.503 49.3185 364.503 53.1556C364.503 56.9926 365.566 60.0778 367.692 62.4111C369.818 64.6926 372.514 65.8333 375.781 65.8333Z" fill="white"/>
</svg>
