<svg width="412" height="94" viewBox="0 0 412 94" fill="none" xmlns="http://www.w3.org/2000/svg">
<path d="M51.7222 74H41.3V50.9778H15.7111V74H5.28889V19.5556H15.7111V41.7222H41.3V19.5556H51.7222V74ZM78.4134 74.5444C74.3171 74.5444 70.6356 73.637 67.3689 71.8222C64.1023 70.0074 61.5356 67.4667 59.6689 64.2C57.8541 60.9333 56.9467 57.2519 56.9467 53.1556C56.9467 49.0593 57.8541 45.4037 59.6689 42.1889C61.5356 38.9222 64.1023 36.3815 67.3689 34.5667C70.6356 32.7518 74.3171 31.8444 78.4134 31.8444C82.4578 31.8444 86.0874 32.7518 89.3023 34.5667C92.5689 36.3815 95.1097 38.9222 96.9245 42.1889C98.7393 45.4037 99.6467 49.0593 99.6467 53.1556C99.6467 57.2519 98.7393 60.9333 96.9245 64.2C95.1097 67.4667 92.5689 70.0074 89.3023 71.8222C86.0874 73.637 82.4578 74.5444 78.4134 74.5444ZM78.4134 65.8333C81.6282 65.8333 84.2726 64.6926 86.3467 62.4111C88.4726 60.0778 89.5356 56.9926 89.5356 53.1556C89.5356 49.3185 88.4726 46.2593 86.3467 43.9778C84.2726 41.6963 81.6282 40.5556 78.4134 40.5556C75.1467 40.5556 72.4504 41.6963 70.3245 43.9778C68.1986 46.2593 67.1356 49.3185 67.1356 53.1556C67.1356 56.9926 68.1986 60.0778 70.3245 62.4111C72.4504 64.6926 75.1467 65.8333 78.4134 65.8333ZM156.378 31.8444C161.304 31.8444 165.193 33.3741 168.044 36.4333C170.948 39.4926 172.4 44.0296 172.4 50.0444V74H162.444V51.6778C162.444 48.1519 161.693 45.4815 160.189 43.6667C158.737 41.8519 156.689 40.9444 154.044 40.9444C151.037 40.9444 148.626 41.9815 146.811 44.0556C145.048 46.0778 144.167 49.0074 144.167 52.8444V74H134.211V51.6778C134.211 48.1 133.485 45.4296 132.033 43.6667C130.581 41.8519 128.507 40.9444 125.811 40.9444C122.804 40.9444 120.418 41.9815 118.655 44.0556C116.893 46.0778 116.011 49.0074 116.011 52.8444V74H105.978V32.3889H115.544V38.0667C116.996 36.0444 118.837 34.5148 121.067 33.4778C123.296 32.3889 125.785 31.8444 128.533 31.8444C131.489 31.8444 134.107 32.4926 136.389 33.7889C138.722 35.0333 140.537 36.9 141.833 39.3889C143.389 37.0037 145.411 35.163 147.9 33.8667C150.441 32.5185 153.267 31.8444 156.378 31.8444ZM219.462 53.2333C219.462 53.4407 219.384 54.4 219.229 56.1111H188.584C189.051 59.1704 190.399 61.6074 192.629 63.4222C194.858 65.1852 197.633 66.0667 200.951 66.0667C205.151 66.0667 208.625 64.6148 211.373 61.7111L216.74 67.7778C212.955 72.2889 207.588 74.5444 200.64 74.5444C196.284 74.5444 192.421 73.637 189.051 71.8222C185.681 69.9556 183.062 67.4148 181.195 64.2C179.381 60.9333 178.473 57.2519 178.473 53.1556C178.473 49.1111 179.355 45.4815 181.118 42.2667C182.933 39 185.421 36.4593 188.584 34.6444C191.747 32.7778 195.273 31.8444 199.162 31.8444C202.999 31.8444 206.447 32.7259 209.507 34.4889C212.618 36.2518 215.055 38.7407 216.818 41.9556C218.581 45.1704 219.462 48.9296 219.462 53.2333ZM199.24 39.8556C196.336 39.8556 193.899 40.7889 191.929 42.6556C190.01 44.4704 188.87 46.8815 188.507 49.8889H209.973C209.558 46.8815 208.392 44.4704 206.473 42.6556C204.555 40.7889 202.144 39.8556 199.24 39.8556Z" fill="white"/>
<path d="M274.733 74H265.089L255.444 46.1556L245.411 74H235.844L221.456 32.3889H230.867L240.9 62.2556L251.322 32.3889H259.8L269.989 62.2556L280.256 32.3889H289.122L274.733 74Z" fill="white"/>
<path d="M380.762 64.0485V74.5H371.126V19.5H380.762V52.1887L398.181 34.8437H409.67L393.882 51.5216L411.078 74.5H399.515L386.84 57.8962L380.762 64.0485Z" fill="white"/>
<path d="M351.978 40.7711C353.214 38.6462 354.943 37.0401 357.167 35.953C359.44 34.8658 362.109 34.3223 365.172 34.3223V43.5878C364.629 43.5383 363.912 43.5136 363.023 43.5136C359.712 43.5136 357.118 44.5267 355.24 46.5527C353.362 48.5294 352.423 51.4696 352.423 55.3735V74.4975H342.787V34.8411H351.978V40.7711Z" fill="white"/>
<path d="M303.086 54.708L295.155 74.4991H285L307.089 22.6123H316.873L339.036 74.4991H328.659L311.981 32.9155L303.086 54.708Z" fill="white"/>
</svg>
