<svg width="336" height="94" viewBox="0 0 336 94" fill="none" xmlns="http://www.w3.org/2000/svg">
<path d="M29.1036 58.2111C28.7925 58.263 28.3259 58.2889 27.7037 58.2889H16.4259V74H6.08143V19.5556H27.7037C32.2148 19.5556 36.1296 20.3333 39.4481 21.8889C42.8185 23.4444 45.3851 25.7 47.1481 28.6556C48.9629 31.5593 49.8703 35.0074 49.8703 39C49.8703 43.0963 48.9111 46.6222 46.9925 49.5778C45.074 52.5333 42.3777 54.737 38.9037 56.1889L50.8037 74H39.6036L29.1036 58.2111ZM27.1592 49.5778C31.0999 49.5778 34.1074 48.6704 36.1814 46.8556C38.3074 44.9889 39.3703 42.3704 39.3703 39C39.3703 35.6815 38.3074 33.1148 36.1814 31.3C34.1074 29.4333 31.0999 28.5 27.1592 28.5H16.4259V49.5778H27.1592ZM93.1321 53.2333C93.1321 53.4407 93.0543 54.4 92.8987 56.1111H62.2543C62.721 59.1704 64.0691 61.6074 66.2987 63.4222C68.5284 65.1852 71.3024 66.0667 74.621 66.0667C78.821 66.0667 82.295 64.6148 85.0432 61.7111L90.4099 67.7778C86.6247 72.2889 81.258 74.5444 74.3099 74.5444C69.9543 74.5444 66.0913 73.637 62.721 71.8222C59.3506 69.9556 56.7321 67.4148 54.8654 64.2C53.0506 60.9333 52.1432 57.2519 52.1432 53.1556C52.1432 49.1111 53.0247 45.4815 54.7876 42.2667C56.6024 39 59.0913 36.4593 62.2543 34.6444C65.4173 32.7778 68.9432 31.8444 72.8321 31.8444C76.6691 31.8444 80.1173 32.7259 83.1765 34.4889C86.2876 36.2518 88.7247 38.7407 90.4876 41.9556C92.2506 45.1704 93.1321 48.9296 93.1321 53.2333ZM72.9099 39.8556C70.0062 39.8556 67.5691 40.7889 65.5987 42.6556C63.6802 44.4704 62.5395 46.8815 62.1765 49.8889H83.6432C83.2284 46.8815 82.0617 44.4704 80.1432 42.6556C78.2247 40.7889 75.8136 39.8556 72.9099 39.8556ZM133.464 74V80.1444H94.5746V74H133.464ZM188.343 31.8444C193.269 31.8444 197.158 33.3741 200.01 36.4333C202.914 39.4926 204.366 44.0296 204.366 50.0444V74H194.41V51.6778C194.41 48.1519 193.658 45.4815 192.154 43.6667C190.703 41.8519 188.654 40.9444 186.01 40.9444C183.003 40.9444 180.591 41.9815 178.777 44.0556C177.014 46.0778 176.132 49.0074 176.132 52.8444V74H166.177V51.6778C166.177 48.1 165.451 45.4296 163.999 43.6667C162.547 41.8519 160.473 40.9444 157.777 40.9444C154.769 40.9444 152.384 41.9815 150.621 44.0556C148.858 46.0778 147.977 49.0074 147.977 52.8444V74H137.943V32.3889H147.51V38.0667C148.962 36.0444 150.803 34.5148 153.032 33.4778C155.262 32.3889 157.751 31.8444 160.499 31.8444C163.454 31.8444 166.073 32.4926 168.354 33.7889C170.688 35.0333 172.503 36.9 173.799 39.3889C175.354 37.0037 177.377 35.163 179.866 33.8667C182.406 32.5185 185.232 31.8444 188.343 31.8444Z" fill="#737373"/>
<path d="M304.762 64.0485V74.5H295.126V19.5H304.762V52.1887L322.181 34.8437H333.67L317.882 51.5216L335.078 74.5H323.515L310.84 57.8962L304.762 64.0485Z" fill="#737373"/>
<path d="M275.978 40.7711C277.214 38.6462 278.943 37.0401 281.167 35.953C283.44 34.8658 286.109 34.3223 289.172 34.3223V43.5878C288.629 43.5383 287.912 43.5136 287.023 43.5136C283.712 43.5136 281.118 44.5267 279.24 46.5527C277.362 48.5294 276.423 51.4696 276.423 55.3735V74.4975H266.787V34.8411H275.978V40.7711Z" fill="#737373"/>
<path d="M227.086 54.708L219.155 74.4991H209L231.089 22.6123H240.873L263.036 74.4991H252.659L235.981 32.9155L227.086 54.708Z" fill="#737373"/>
</svg>
