<svg width="392" height="94" viewBox="0 0 392 94" fill="none" xmlns="http://www.w3.org/2000/svg">
<path d="M-8.68589e-05 28.5V19.5556H44.2555V28.5H27.3777V74H16.9555V28.5H-8.68589e-05ZM81.1543 53.2333C81.1543 53.4407 81.0766 54.4 80.921 56.1111H50.2766C50.7432 59.1704 52.0914 61.6074 54.321 63.4222C56.5506 65.1852 59.3247 66.0667 62.6432 66.0667C66.8432 66.0667 70.3173 64.6148 73.0655 61.7111L78.4321 67.7778C74.6469 72.2889 69.2803 74.5444 62.3321 74.5444C57.9766 74.5444 54.1136 73.637 50.7432 71.8222C47.3729 69.9556 44.7543 67.4148 42.8877 64.2C41.0729 60.9333 40.1655 57.2519 40.1655 53.1556C40.1655 49.1111 41.0469 45.4815 42.8099 42.2667C44.6247 39 47.1136 36.4593 50.2766 34.6444C53.4395 32.7778 56.9655 31.8444 60.8543 31.8444C64.6914 31.8444 68.1395 32.7259 71.1988 34.4889C74.3099 36.2518 76.7469 38.7407 78.5099 41.9556C80.2729 45.1704 81.1543 48.9296 81.1543 53.2333ZM60.9321 39.8556C58.0284 39.8556 55.5914 40.7889 53.621 42.6556C51.7025 44.4704 50.5617 46.8815 50.1988 49.8889H71.6655C71.2506 46.8815 70.084 44.4704 68.1655 42.6556C66.2469 40.7889 63.8358 39.8556 60.9321 39.8556ZM103.13 31.8444C109.041 31.8444 113.552 33.3481 116.664 36.3556C119.827 39.3111 121.408 43.7704 121.408 49.7333V74H111.997V68.3222C110.908 70.3444 109.301 71.9 107.175 72.9889C105.049 74.0259 102.508 74.5444 99.5524 74.5444C95.0413 74.5444 91.4635 73.4037 88.8191 71.1222C86.1747 68.7889 84.8524 65.7815 84.8524 62.1C84.8524 58.3148 86.2006 55.3333 88.8969 53.1556C91.5932 50.9259 95.7672 49.8111 101.419 49.8111H111.375C111.375 48.0481 111.115 46.6222 110.597 45.5333C109.456 42.0074 106.527 40.2444 101.808 40.2444C99.5784 40.2444 97.4006 40.6333 95.2747 41.4111C93.2006 42.137 91.4117 43.1222 89.908 44.3667L86.2524 37.0556C88.3784 35.3963 90.9191 34.1259 93.8747 33.2444C96.8821 32.3111 99.9672 31.8444 103.13 31.8444ZM101.964 67.3889C104.193 67.3889 106.138 66.8444 107.797 65.7556C109.456 64.6667 110.649 63.0852 111.375 61.0111V56.0333H102.508C97.271 56.0333 94.6524 57.9 94.6524 61.6333C94.6524 63.3963 95.3006 64.7963 96.5969 65.8333C97.8932 66.8704 99.6821 67.3889 101.964 67.3889ZM179.715 31.8444C184.641 31.8444 188.53 33.3741 191.382 36.4333C194.286 39.4926 195.737 44.0296 195.737 50.0444V74H185.782V51.6778C185.782 48.1519 185.03 45.4815 183.526 43.6667C182.074 41.8519 180.026 40.9444 177.382 40.9444C174.374 40.9444 171.963 41.9815 170.149 44.0556C168.386 46.0778 167.504 49.0074 167.504 52.8444V74H157.549V51.6778C157.549 48.1 156.823 45.4296 155.371 43.6667C153.919 41.8519 151.845 40.9444 149.149 40.9444C146.141 40.9444 143.756 41.9815 141.993 44.0556C140.23 46.0778 139.349 49.0074 139.349 52.8444V74H129.315V32.3889H138.882V38.0667C140.334 36.0444 142.174 34.5148 144.404 33.4778C146.634 32.3889 149.123 31.8444 151.871 31.8444C154.826 31.8444 157.445 32.4926 159.726 33.7889C162.06 35.0333 163.874 36.9 165.171 39.3889C166.726 37.0037 168.749 35.163 171.237 33.8667C173.778 32.5185 176.604 31.8444 179.715 31.8444ZM251.183 74H241.539L231.894 46.1556L221.861 74H212.294L197.905 32.3889H207.316L217.35 62.2556L227.772 32.3889H236.25L246.439 62.2556L256.705 32.3889H265.572L251.183 74Z" fill="white"/>
<path d="M361.617 64.0485V74.5H351.981V19.5H361.617V52.1887L379.036 34.8437H390.525L374.737 51.5216L391.934 74.5H380.371L367.696 57.8962L361.617 64.0485Z" fill="white"/>
<path d="M332.834 40.7711C334.069 38.6462 335.799 37.0401 338.022 35.953C340.296 34.8658 342.964 34.3223 346.028 34.3223V43.5878C345.484 43.5383 344.768 43.5136 343.878 43.5136C340.567 43.5136 337.973 44.5267 336.095 46.5527C334.217 48.5294 333.279 51.4696 333.279 55.3735V74.4975H323.643V34.8411H332.834V40.7711Z" fill="white"/>
<path d="M283.942 54.708L276.01 74.4991H265.855L287.944 22.6123H297.728L319.891 74.4991H309.514L292.836 32.9155L283.942 54.708Z" fill="white"/>
</svg>
